<?xml version="1.0" encoding="utf-8"?>
<!-- Generator: Adobe Illustrator 24.1.2, SVG Export Plug-In . SVG Version: 6.00 Build 0)  -->
<svg version="1.1" id="Layer_1" xmlns="http://www.w3.org/2000/svg" xmlns:xlink="http://www.w3.org/1999/xlink" x="0px" y="0px"
	 viewBox="0 0 316.5 267.8" style="enable-background:new 0 0 316.5 267.8;" xml:space="preserve">
<style type="text/css">
	.st0{fill:#67F4AA;}
	.st1{fill:#29B260;}
	.st2{fill:#000201;}
	.st3{fill:#FFFFFF;}
	.st4{fill:#ECEFF6;}
	.st5{opacity:0.2;}
	.st6{fill:#C8D3D9;}
	.st7{fill:#F9A948;}
	.st8{fill:#FFD297;}
	.st9{fill:#D9E1E4;}
	.st10{fill:#B4BEC1;}
	.st11{opacity:0.4;fill:#94B5BF;enable-background:new    ;}
	.st12{fill:#94B5BF;}
	.st13{fill:#FFEDE1;}
	.st14{fill:#431B95;}
	.st15{fill:#BA2028;}
	.st16{fill:#F29530;}
	.st17{fill:#DEF6FF;}
	.st18{fill:#99CDDD;}
	.st19{opacity:0.5;fill:#FFFFFF;enable-background:new    ;}
	.st20{fill:#A27EFE;}
</style>
<path class="st0" d="M290.3,216.1c-4.8-13.8-19.9-21.1-33.7-16.3c-10.6,3.7-17.8,13.7-17.8,24.9v29.5l16.9,0.5h40.1
	c10.8,0,19.5-8.7,19.5-19.5c0-10.8-8.7-19.5-19.5-19.5s-19.5,8.7-19.5,19.5c0,0,0,0.1,0,0.1l0,0"/>
<path class="st1" d="M273.6,236.3L273.6,236.3c-0.8,0-1.4-0.7-1.4-1.5l0,0c0.2-9.4,6.4-17.7,15.3-20.6c0.8-0.2,1.6,0.2,1.9,0.9
	c0.3,0.8-0.1,1.6-0.9,1.9c0,0,0,0,0,0c-7.9,2.4-13.4,9.7-13.5,18c0,0.7-0.5,1.2-1.2,1.2C273.8,236.3,273.7,236.3,273.6,236.3z"/>
<path class="st1" d="M315,235.6c0,10.7-8.7,19.5-19.4,19.5c0,0-0.1,0-0.1,0h-2.9c10.4-4.9,14.8-17.3,9.9-27.7c0,0,0-0.1,0-0.1
	c-2.3-4.9-6.5-8.7-11.6-10.6c10.4-2.5,21,3.9,23.5,14.3c0,0,0,0.1,0,0.1C314.8,232.6,315,234.1,315,235.6z"/>
<circle class="st1" cx="302.8" cy="229.3" r="3"/>
<circle class="st1" cx="300.6" cy="234.8" r="1.4"/>
<ellipse class="st1" cx="298.5" cy="231.4" rx="0.6" ry="0.9"/>
<path class="st2" d="M289.5,216.8c-0.3,0-0.6-0.2-0.7-0.5c-1.5-4.2-4-7.9-7.3-10.8c-0.3-0.3-0.3-0.8,0-1.1l0,0
	c0.3-0.3,0.8-0.3,1.1,0l0,0c3.5,3.1,6.2,7.1,7.8,11.5c0.1,0.4-0.1,0.8-0.5,1L289.5,216.8z"/>
<path class="st2" d="M295.8,255.9h-40.1l-16.9-0.5c-0.6,0-1.1-0.5-1.1-1.1v-29.5c0-15.3,12.5-27.6,27.7-27.5
	c11.5,0,21.8,7.2,25.8,17.9c1.5-0.4,3.1-0.5,4.6-0.5c11.4,0,20.6,9.2,20.6,20.7C316.4,246.6,307.2,255.9,295.8,255.9L295.8,255.9z
	 M240,253.1l15.8,0.5h40c10.1,0,18.3-8.2,18.3-18.4s-8.2-18.3-18.4-18.3s-18.3,8.2-18.3,18.4c0,0,0,0.1,0,0.1c0,0.6-0.5,1.1-1.2,1.1
	c-0.6,0-1.1-0.5-1.1-1.1c0-8.8,5.5-16.6,13.8-19.6c-5-12.7-19.1-19.3-32-14.8c-10.1,3.6-16.9,13.1-16.9,23.8V253.1z"/>
<path class="st1" d="M263.2,257.4l-1.9-2.2c4.3-3.9,4.7-10.5,0.8-14.8c0,0-0.1-0.1-0.1-0.1c-3.7-4.1-9.9-4.6-14.3-1.3l0,0l-1.9-2.2
	c5.7-4.8,14.2-4,19,1.7C269.6,244.1,268.9,252.5,263.2,257.4C263.3,257.3,263.2,257.4,263.2,257.4L263.2,257.4z"/>
<path class="st2" d="M280.1,203.5h-0.4c-0.6-0.5-1.3-0.9-2-1.2c-0.4-0.2-0.5-0.6-0.4-1l0,0c0.2-0.4,0.7-0.6,1.1-0.4l0,0
	c0.8,0.4,1.5,0.8,2.2,1.3c0.4,0.2,0.5,0.6,0.3,1c0,0,0,0.1-0.1,0.1l0,0C280.6,203.4,280.3,203.5,280.1,203.5z"/>
<path class="st2" d="M275.3,201H275c-3.9-1.5-8.1-2.1-12.2-1.7c-0.4,0-0.8-0.3-0.9-0.7c-0.1-0.4,0.2-0.8,0.6-0.9h2.9
	c3.5,0,6.9,0.6,10.1,1.9c0.4,0.2,0.6,0.6,0.5,1c0,0.3-0.2,0.6-0.6,0.6c0,0,0,0,0,0L275.3,201z"/>
<path class="st2" d="M261.1,257.4c-0.2,0-0.5-0.1-0.6-0.3c-0.3-0.3-0.3-0.8,0-1.1c4.4-3.9,4.8-10.6,0.9-15
	c-3.8-4.2-10.2-4.8-14.6-1.3c-0.3,0.3-0.8,0.2-1.1-0.1c-0.3-0.3-0.3-0.7,0-1l0,0c5.4-4.1,13.1-3,17.2,2.4c3.8,5,3.2,12.2-1.5,16.4
	H261.1z"/>
<path class="st3" d="M257.9,205.1c-0.6,0-1-0.4-1-1c0-0.4,0.2-0.7,0.6-0.9c3.4-1.4,7-1.9,10.6-1.6c0.5,0.1,0.9,0.5,0.9,1l0,0
	c0,0.5-0.4,0.9-0.9,0.9H268c-3.3-0.3-6.7,0.2-9.8,1.4L257.9,205.1z"/>
<path class="st3" d="M252,209.5c-0.2,0-0.4-0.1-0.6-0.2c-0.4-0.4-0.4-1,0-1.4c0.7-0.8,1.5-1.6,2.3-2.3c0.4-0.3,1-0.3,1.3,0.1l0,0
	c0.4,0.3,0.4,0.8,0.1,1.2c0,0-0.1,0.1-0.1,0.1l0,0c-0.7,0.6-1.4,1.3-2,2C252.8,209.4,252.4,209.6,252,209.5z"/>
<path class="st0" d="M87.3,216.1c4.8-13.8,19.9-21.1,33.7-16.3c10.6,3.7,17.8,13.7,17.8,24.9v29.5l-16.9,0.5H81.8
	c-10.8,0-19.5-8.7-19.5-19.5s8.7-19.5,19.5-19.5s19.5,8.7,19.5,19.5l0,0l0,0"/>
<path class="st1" d="M104.3,235.7L104.3,235.7c0.8,0,1.4-0.7,1.4-1.5c0,0,0,0,0,0l0,0c-0.4-9.4-6.8-17.5-15.8-20.2
	c-0.8-0.3-1.7,0.1-1.9,0.9c-0.3,0.8,0.1,1.7,0.9,1.9c0,0,0.1,0,0.1,0l0,0c8,2.3,13.6,9.4,13.9,17.7
	C103,235.3,103.6,235.8,104.3,235.7C104.3,235.7,104.3,235.7,104.3,235.7z"/>
<path class="st1" d="M115.2,257.4l1.8-2.2c-4.6-3.6-5.3-10.3-1.7-14.9c3.6-4.6,10.3-5.3,14.9-1.7c0.2,0.1,0.3,0.2,0.5,0.4l0,0
	l1.8-2.2c-5.6-4.8-14.1-4.2-18.9,1.4c-4.8,5.6-4.2,14.1,1.4,18.9C115,257.2,115.1,257.3,115.2,257.4L115.2,257.4z"/>
<path class="st1" d="M62.6,235.6c0,10.7,8.7,19.5,19.4,19.5c0,0,0.1,0,0.1,0H85c-10.4-4.9-14.8-17.3-9.9-27.7c0,0,0-0.1,0-0.1
	c2.3-4.9,6.5-8.7,11.6-10.6c-10.4-2.5-21,3.9-23.5,14.3c0,0,0,0.1,0,0.1l0,0C62.8,232.6,62.6,234.1,62.6,235.6z"/>
<circle class="st1" cx="74.7" cy="229.3" r="3"/>
<circle class="st1" cx="77" cy="234.8" r="1.4"/>
<ellipse class="st1" cx="79.1" cy="231.4" rx="0.6" ry="0.9"/>
<path class="st2" d="M88.1,216.8c0.3,0,0.6-0.2,0.7-0.5c1.5-4.2,4-7.9,7.3-10.8c0.3-0.3,0.3-0.8,0-1.1l0,0c-0.3-0.3-0.8-0.3-1.1,0
	l0,0c-3.6,3.1-6.3,7-7.8,11.5c-0.2,0.3,0,0.8,0.3,0.9c0.1,0,0.1,0.1,0.2,0.1L88.1,216.8z"/>
<path class="st2" d="M98.4,203.5h0.4c0.6-0.5,1.3-0.9,2-1.2c0.4-0.2,0.5-0.7,0.3-1.1c-0.2-0.4-0.6-0.5-1-0.4l0,0
	c-0.8,0.4-1.5,0.8-2.2,1.3c-0.3,0.2-0.5,0.6-0.3,1c0,0.1,0.1,0.1,0.1,0.1l0,0C97.9,203.4,98.1,203.5,98.4,203.5z"/>
<path class="st2" d="M103.3,201h0.3c3.9-1.5,8.1-2.1,12.2-1.7c0.4,0.1,0.9-0.2,1-0.6s-0.2-0.9-0.6-1c-0.1,0-0.1,0-0.2,0h-2.9
	c-3.5,0-6.9,0.6-10.1,1.9c-0.4,0.2-0.6,0.6-0.5,1c0.1,0.3,0.4,0.5,0.7,0.5L103.3,201z"/>
<path class="st2" d="M82.6,255.6h40.1c0.4,0,0.8-0.3,0.8-0.8c0,0,0,0,0,0l0,0c0-0.4-0.3-0.8-0.8-0.8c0,0,0,0,0,0H82.6
	c-10.3,0-18.7-8.4-18.7-18.7c0-10.3,8.4-18.7,18.7-18.7c10.3,0,18.7,8.4,18.7,18.7l0,0l0,0c-0.1,0.4,0.2,0.8,0.6,0.9
	c0.4,0.1,0.8-0.2,0.9-0.6v-0.3c0-11.2-9-20.2-20.2-20.2c-11.2,0-20.2,9-20.2,20.2c0,11.2,9,20.2,20.2,20.2h0L82.6,255.6z"/>
<path class="st2" d="M117.5,257.4c0.2,0,0.5-0.1,0.6-0.3c0.3-0.3,0.3-0.8,0-1.1l0,0c-4.4-3.9-4.8-10.6-0.9-15
	c3.8-4.2,10.2-4.8,14.6-1.3c0.3,0.3,0.8,0.2,1.1-0.1c0.3-0.3,0.3-0.7,0-1l0,0c-5.4-4.1-13.1-3-17.2,2.4c-3.8,5-3.2,12.2,1.5,16.4
	H117.5z"/>
<path class="st3" d="M120.7,205.1c0.6,0,1-0.4,1-1c0-0.4-0.2-0.7-0.6-0.9c-3.4-1.4-7.1-1.9-10.7-1.6c-0.5,0.1-0.9,0.5-0.9,1l0,0
	c0,0.5,0.4,0.9,0.9,0.9h0.1c3.3-0.3,6.7,0.2,9.8,1.4C120.4,205.1,120.5,205.1,120.7,205.1z"/>
<path class="st3" d="M126.6,209.5c0.2,0,0.4-0.1,0.6-0.2c0.4-0.3,0.4-0.8,0.1-1.2c0,0-0.1-0.1-0.1-0.1l0,0c-0.7-0.8-1.5-1.6-2.3-2.3
	c-0.5-0.3-1.1-0.2-1.4,0.3c-0.3,0.4-0.2,0.9,0.1,1.2c0.7,0.6,1.4,1.3,2,2C125.9,209.4,126.2,209.5,126.6,209.5z"/>
<path class="st4" d="M305.4,57.9c0.1-15.7-12.6-28.5-28.3-28.6c-13.3-0.1-24.9,9.1-27.9,22.1c-9-5-20.3-1.7-25.3,7.3
	s-1.7,20.3,7.3,25.3c0.2,0.1,0.5,0.3,0.7,0.4c2.4,1.2,5,1.9,7.6,2.1h40.3C294.4,85,305.6,72.6,305.4,57.9z"/>
<g class="st5">
	<path class="st6" d="M60.5,113.2c0,6.5-5,11.8-11.5,12.2H22.2c-10.3-1.1-17.8-10.3-16.8-20.6S15.7,86.9,26,88
		c7.9,0.8,14.5,6.5,16.4,14.3c5.9-3.2,13.4-1,16.6,4.9c0,0,0,0,0,0.1l0,0C60,109.1,60.5,111.1,60.5,113.2z"/>
	<path class="st6" d="M24,125.5L24,125.5z"/>
</g>
<g class="st5">
	<path class="st6" d="M113.8,160.5c0,6.5-5,11.8-11.5,12.2H75.7c-10.4-1-17.9-10.3-16.9-20.6c1-10.4,10.3-17.9,20.6-16.9
		c8,0.8,14.6,6.6,16.5,14.4c5.9-3.2,13.3-1,16.6,4.9c1,1.8,1.5,3.8,1.5,5.9L113.8,160.5z"/>
	<path class="st6" d="M77.4,172.9L77.4,172.9z"/>
</g>
<path class="st2" d="M74.9,108.1c-13.6,0-24.4-4.4-32-13.2c-5-5.8-11.3-16.5-13-35.3c-0.6-6.7-0.6-13.5,0.1-20.2
	c0.1-0.4,0.4-0.7,0.8-0.6s0.7,0.4,0.6,0.8l0,0c0,0.3-4.4,35.2,12.5,54.4c7.4,8.3,17.8,12.5,30.9,12.5c0.4,0,0.7,0.3,0.7,0.7
	c0,0,0,0,0,0C75.5,107.6,75.3,108.1,74.9,108.1z"/>
<path class="st2" d="M82.5,108.1c-13.6,0-24.4-4.4-32-13.2c-5-5.8-11.3-16.5-13-35.3c-0.7-6.7-0.7-13.5,0-20.2
	c0.1-0.4,0.4-0.7,0.8-0.6c0.3,0,0.6,0.3,0.6,0.6c0,0,0,0.1,0,0.1v0.1c0,0.3-4.4,35.2,12.5,54.4c7.4,8.4,17.8,12.7,30.9,12.7
	c0.4,0,0.7,0.3,0.7,0.7c0,0.4-0.3,0.7-0.7,0.7H82.5z"/>
<rect x="15.2" y="32.6" class="st7" width="85.7" height="7.2"/>
<rect x="14.9" y="32.3" class="st8" width="85.7" height="2.9"/>
<path class="st2" d="M100.8,40.3H15.2c-0.5,0-0.8-0.4-0.8-0.8c0,0,0,0,0-0.1v-7.2c0-0.5,0.4-0.9,0.9-0.9h85.6c0.5,0,0.9,0.4,0.9,0.9
	l0,0l0,0v7.2C101.8,39.9,101.4,40.3,100.8,40.3C100.8,40.3,100.8,40.3,100.8,40.3z M16.1,38.5H100v-5.4H16.1V38.5z"/>
<rect x="46.8" y="9.7" class="st9" width="9" height="58.8"/>
<rect x="50.4" y="9.7" class="st10" width="3.9" height="58.8"/>
<rect x="46.1" y="9.7" class="st3" width="2.2" height="58.8"/>
<path class="st2" d="M54.7,69.2h-8.8c-0.5,0-0.9-0.4-0.9-0.9l0,0V9.5c0-0.5,0.4-0.9,0.9-0.9l0,0h8.8c0.5,0,0.9,0.4,0.9,0.9v0v58.8
	C55.6,68.8,55.2,69.2,54.7,69.2z M46.7,67.4h7.2v-57h-7.1L46.7,67.4z"/>
<rect x="54.7" y="0.7" class="st8" width="8.2" height="254.5"/>
<rect x="57.9" y="0.7" class="st7" width="4.3" height="254.5"/>
<path class="st2" d="M54.5,133.9c-0.5,0-0.9-0.4-0.9-0.9l0,0v-4.8c0-0.5,0.4-0.9,0.9-0.9c0.5,0,0.9,0.4,0.9,0.9v4.8
	C55.4,133.5,55,133.9,54.5,133.9z"/>
<path class="st2" d="M54.5,141.9c-0.5,0-0.9-0.4-0.9-0.9l0,0v-2.7c0-0.5,0.4-0.9,0.9-0.9c0.5,0,0.9,0.4,0.9,0.9c0,0,0,0,0,0v2.9
	C55.3,141.6,54.9,141.9,54.5,141.9z"/>
<path class="st2" d="M62.7,256.5h-8.2c-0.5,0-0.9-0.4-0.9-0.9v-110c0-0.5,0.4-0.9,0.9-0.9c0.5,0,0.9,0.4,0.9,0.9c0,0,0,0,0,0v109
	h6.5V1.9h-6.5v120.3c0,0.5-0.4,0.9-0.9,0.9c-0.5,0-0.9-0.4-0.9-0.9c0,0,0,0,0,0l0,0V0.9C53.6,0.4,54,0,54.5,0c0,0,0,0,0,0h8.2
	c0.5,0,0.9,0.4,0.9,0.9c0,0,0,0,0,0l0,0v254.6c0.1,0.5-0.3,0.9-0.8,1c0,0,0,0,0,0H62.7z"/>
<path class="st2" d="M59.9,79.6c-0.3,0-0.5-0.2-0.5-0.4c0,0,0,0,0-0.1l0,0V73c0-0.3,0.2-0.5,0.5-0.5s0.5,0.2,0.5,0.5v6.1
	C60.4,79.4,60.2,79.6,59.9,79.6z"/>
<path class="st2" d="M59.9,167.8c-0.3,0-0.5-0.2-0.5-0.5l0,0v-6.1c0-0.3,0.2-0.5,0.5-0.5s0.5,0.2,0.5,0.5v6c0,0.3-0.2,0.5-0.5,0.5
	V167.8z"/>
<path class="st2" d="M59.9,158.8c-0.3,0-0.5-0.2-0.5-0.5v-3.6c0-0.3,0.2-0.5,0.5-0.5s0.5,0.2,0.5,0.5v3.6
	C60.4,158.6,60.2,158.8,59.9,158.8C59.9,158.8,59.9,158.8,59.9,158.8z"/>
<path class="st2" d="M21.9,36.9h-6.1c-0.3,0-0.5-0.2-0.5-0.4c0,0,0,0,0-0.1l0,0c0-0.3,0.2-0.5,0.4-0.5c0,0,0,0,0.1,0h6.1
	c0.3,0,0.5,0.2,0.5,0.5S22.2,36.9,21.9,36.9z"/>
<path class="st2" d="M29.8,36.9h-4.7c-0.3,0-0.5-0.2-0.5-0.4c0,0,0,0,0-0.1c0-0.3,0.2-0.5,0.5-0.5h4.7c0.3,0,0.5,0.2,0.5,0.5
	S30.1,36.9,29.8,36.9z"/>
<path class="st2" d="M58.4,229.8c-0.3,0-0.5-0.2-0.5-0.4c0,0,0,0,0-0.1l0,0v-6.1c0-0.3,0.2-0.5,0.5-0.5s0.5,0.2,0.5,0.5v6.1
	C59,229.6,58.7,229.8,58.4,229.8z"/>
<path class="st2" d="M0.7,74C0.3,74,0,73.7,0,73.3c0,0,0,0,0,0c0-0.3,0.2-0.6,0.5-0.7c18.6-4.8,19.2-32.5,19.2-32.8
	c0-0.4,0.3-0.7,0.7-0.7c0.4,0,0.7,0.3,0.7,0.7C20.9,44.9,20,50,18.4,54.9C15,65.3,8.9,72,0.7,74z"/>
<path class="st2" d="M5.7,76.5c-0.4,0-0.7-0.3-0.7-0.7c0,0,0,0,0,0c0-0.3,0.2-0.6,0.5-0.7c18.6-4.8,19.2-35,19.2-35.3
	c0-0.4,0.3-0.7,0.7-0.7s0.7,0.3,0.7,0.7c0,0,0,0,0,0c-0.2,5.5-1.1,11-2.7,16.3C20,67.3,13.9,74.3,5.7,76.5z"/>
<polyline class="st9" points="276.3,113 276.3,256.3 97.4,256.3 97.4,242.3 97.4,111.7 "/>
<polyline class="st11" points="276.3,113.3 276.3,256.6 203.9,256.6 203.9,242.6 203.9,112 "/>
<path class="st12" d="M276.9,129v12.9c-1.8-2.3-2.9-5.1-2.9-8c0,7.1-5.7,12.8-12.8,12.8c-7.1,0-12.8-5.7-12.8-12.8
	c-0.3,7.1-6.2,12.6-13.3,12.3c-6.7-0.3-12-5.6-12.3-12.3c-0.3,7.1-6.2,12.6-13.3,12.3c-6.7-0.3-12-5.6-12.3-12.3
	c-0.3,7.1-6.2,12.6-13.3,12.3c-6.7-0.3-12-5.6-12.3-12.3c-0.3,7.1-6.2,12.6-13.3,12.3c-6.7-0.3-12-5.6-12.3-12.3
	c0,7.1-5.7,12.8-12.8,12.8c-7.1,0-12.8-5.7-12.8-12.8c0,7.1-5.8,12.7-12.9,12.7c-3.8,0-7.3-1.7-9.7-4.6v-12.9
	c4.5,5.4,12.6,6.2,18,1.7c2.9-2.4,4.6-6,4.7-9.8c0,7.1,5.7,12.8,12.8,12.8s12.8-5.7,12.8-12.8c0.3,7.1,6.2,12.6,13.3,12.3
	c6.7-0.3,12-5.6,12.3-12.3c0.3,7.1,6.2,12.6,13.3,12.3c6.7-0.3,12-5.6,12.3-12.3c0.3,7.1,6.2,12.6,13.3,12.3
	c6.7-0.3,12-5.6,12.3-12.3c0.3,7.1,6.2,12.6,13.3,12.3c6.7-0.3,12-5.6,12.3-12.3c0,7.1,5.7,12.8,12.8,12.8c7.1,0,12.8-5.7,12.8-12.8
	C274.1,123.9,275.1,126.7,276.9,129z"/>
<path class="st12" d="M98.6,150.8h9.2c4.5,0,8.2,3.7,8.2,8.2l0,0v65.2c-0.1,3.5-2.9,6.3-6.4,6.3H98.7L98.6,150.8L98.6,150.8z"/>
<polygon class="st3" points="111,229.9 82.7,227.9 82.7,146.9 111,146.9 "/>
<path class="st13" d="M111,146.4v83H82.6v-5.9h8.1c8,0,14.4-6.4,14.4-14.4l0,0v-62.7H111z"/>
<path class="st2" d="M111,230.9H82.7c-0.6,0-1.1-0.5-1.2-1.1c0,0,0,0,0,0v-32.4c0-0.6,0.5-1.2,1.2-1.2s1.2,0.5,1.2,1.2v31.3h26
	v-80.7h-26v17.8c0,0.6-0.5,1.2-1.2,1.1c-0.6,0-1.2-0.5-1.2-1.1v-19c0-0.6,0.5-1.1,1.1-1.1c0,0,0,0,0,0H111c0.6,0,1.1,0.5,1.2,1.1
	c0,0,0,0,0,0v83C112.2,230.3,111.6,230.8,111,230.9C111,230.9,111,230.9,111,230.9z"/>
<circle class="st14" cx="96.5" cy="165.9" r="6.8"/>
<circle class="st15" cx="98.6" cy="190.3" r="3.2"/>
<circle class="st14" cx="96.5" cy="188.4" r="6.8"/>
<circle class="st14" cx="96.5" cy="209.1" r="6.8"/>
<circle class="st13" cx="88.7" cy="223.2" r="2.4"/>
<circle class="st13" cx="93.3" cy="219.5" r="1.2"/>
<circle class="st13" cx="106.1" cy="197.9" r="2.2"/>
<path class="st2" d="M82.7,180c-0.6,0-1.1-0.5-1.2-1.1c0,0,0,0,0,0v-5.6c0-0.6,0.5-1.1,1.2-1.1s1.2,0.5,1.2,1.1v5.6
	C83.9,179.5,83.3,180,82.7,180C82.7,180,82.7,180,82.7,180z"/>
<path class="st2" d="M82.7,191.4c-0.6,0-1.1-0.5-1.2-1.1c0,0,0,0,0,0v-4.8c0-0.6,0.5-1.2,1.2-1.2s1.2,0.5,1.2,1.2v4.8
	C83.9,190.8,83.3,191.3,82.7,191.4C82.7,191.4,82.7,191.4,82.7,191.4z"/>
<circle class="st2" cx="97.4" cy="236" r="1.6"/>
<circle class="st6" cx="112.9" cy="117.6" r="4.9"/>
<circle class="st6" cx="213.1" cy="112" r="1"/>
<polyline class="st8" points="184.3,257 184.3,156.2 126.1,156.2 126.1,257 "/>
<polyline class="st16" points="184.3,221.6 184.3,210.4 126.1,210.4 126.1,221.6 "/>
<rect x="197.2" y="154.9" class="st17" width="66.5" height="53.6"/>
<path class="st2" d="M97.4,142.6c-0.6,0-1.1-0.5-1.2-1.1c0,0,0,0,0,0v-9.8c0-0.6,0.5-1.2,1.2-1.2s1.2,0.5,1.2,1.2l0,0v9.8
	C98.6,142,98,142.5,97.4,142.6C97.4,142.6,97.4,142.6,97.4,142.6z"/>
<path class="st18" d="M264.1,210h-67.3v-55.2h67.3L264.1,210z M201.6,205.2h57.7v-45.7h-57.7L201.6,205.2z"/>
<polygon class="st19" points="156.2,156.2 151.4,156.2 125.2,194.1 125.3,201.2 "/>
<polygon class="st3" points="172.6,156.2 166.8,156.2 134.4,203.3 134.4,210.4 "/>
<polygon class="st3" points="183.7,156.2 175.6,156.2 143.2,203.3 145.6,210.4 "/>
<path class="st2" d="M184.3,257.5c-0.6,0-1.1-0.5-1.1-1.1c0,0,0,0,0,0v-99.7h-55.9v99.6c0,0.6-0.5,1.1-1.2,1.1s-1.2-0.5-1.2-1.1
	V155.5c0-0.6,0.5-1.1,1.1-1.1c0,0,0,0,0,0h58.2c0.6,0,1.1,0.5,1.1,1.1c0,0,0,0,0,0v100.8C185.5,256.9,184.9,257.4,184.3,257.5
	C184.3,257.5,184.3,257.5,184.3,257.5z"/>
<path class="st2" d="M178.7,256.6c-0.4,0-0.8-0.4-0.8-0.8V162h-45.7v93.8c0,0.4-0.4,0.8-0.8,0.8c-0.4,0-0.8-0.4-0.8-0.8v-94.6
	c0-0.4,0.4-0.8,0.8-0.8h47.3c0.4,0,0.8,0.4,0.8,0.8v94.6C179.5,256.2,179.1,256.6,178.7,256.6L178.7,256.6z"/>
<rect x="120.5" y="199.7" class="st8" width="69.1" height="17.6"/>
<rect x="120.5" y="210.4" class="st7" width="69.1" height="6.9"/>
<path class="st2" d="M189.6,218.4h-69.1c-0.6,0-1.1-0.5-1.2-1.1c0,0,0,0,0,0v-17.6c0-0.6,0.5-1.1,1.1-1.1c0,0,0,0,0,0h69.1
	c0.6,0,1.1,0.5,1.1,1.1c0,0,0,0,0,0v17.6C190.8,217.9,190.2,218.4,189.6,218.4C189.6,218.5,189.6,218.5,189.6,218.4z M121.7,216.1
	h66.8v-15.3h-66.8V216.1z"/>
<circle class="st3" cx="178.7" cy="208.5" r="4.3"/>
<path class="st2" d="M178.7,213.3c-2.7,0-4.8-2.2-4.8-4.8s2.2-4.8,4.8-4.8c2.7,0,4.8,2.2,4.8,4.8
	C183.5,211.2,181.4,213.3,178.7,213.3L178.7,213.3z M178.7,204.7c-2.1,0-3.8,1.7-3.8,3.8c0,2.1,1.7,3.8,3.8,3.8
	c2.1,0,3.8-1.7,3.8-3.8S180.8,204.7,178.7,204.7C178.7,204.7,178.7,204.7,178.7,204.7z"/>
<path class="st12" d="M197.2,209.1h68c1.3,0,2.3,1,2.4,2.3l0,0c0,1.3-1.1,2.3-2.4,2.3c0,0,0,0,0,0h-68c-1.3,0-2.3-1-2.4-2.3l0,0
	C194.9,210.1,195.9,209.1,197.2,209.1z"/>
<path class="st2" d="M136.3,205.4h-15.8c-0.3,0-0.6-0.2-0.6-0.6s0.2-0.6,0.6-0.6h15.8c0.3,0,0.6,0.2,0.6,0.6
	S136.6,205.4,136.3,205.4z"/>
<path class="st2" d="M129.1,208.3h-8.6c-0.3,0-0.6-0.2-0.6-0.6s0.2-0.6,0.6-0.6l0,0h8.6c0.3,0,0.6,0.2,0.6,0.6
	S129.4,208.3,129.1,208.3z"/>
<path class="st2" d="M152.6,173.8c-1.8,0-3.3-1.5-3.3-3.3s1.5-3.3,3.3-3.3s3.3,1.5,3.3,3.3C155.8,172.3,154.4,173.7,152.6,173.8z
	 M152.6,168.4c-1.2,0-2.2,1-2.2,2.1s1,2.2,2.1,2.2s2.2-1,2.2-2.1v0C154.8,169.3,153.8,168.4,152.6,168.4z"/>
<path class="st2" d="M145.3,193.1h-0.1c-0.3-0.1-0.5-0.4-0.4-0.7l5.8-19.7c0.1-0.3,0.4-0.5,0.7-0.4c0,0,0,0,0,0
	c0.3,0.1,0.5,0.4,0.4,0.7l-5.8,19.7C145.8,192.9,145.5,193,145.3,193.1z"/>
<path class="st2" d="M159,193.1c-0.2,0-0.5-0.2-0.5-0.4l-5.5-19.4c-0.1-0.3-0.1-0.6,0.2-0.7c0.3-0.1,0.6-0.1,0.7,0.2
	c0,0.1,0.1,0.2,0.1,0.3l5.5,19.4c0.1,0.3-0.1,0.6-0.4,0.7L159,193.1z"/>
<rect x="134.2" y="192.5" class="st3" width="39.1" height="12.5"/>
<path class="st2" d="M173.3,206.1h-39.1c-0.6,0-1.1-0.5-1.1-1.1c0,0,0,0,0,0v-12.5c0-0.6,0.5-1.1,1.1-1.1c0,0,0,0,0,0h39.1
	c0.6,0,1.1,0.5,1.1,1.1c0,0,0,0,0,0V205C174.5,205.6,173.9,206.1,173.3,206.1C173.3,206.2,173.3,206.2,173.3,206.1z M135.3,203.8
	h36.8v-10.2h-36.8V203.8z"/>
<rect x="242.1" y="188.4" class="st18" width="19" height="19"/>
<rect x="225.3" y="195.7" class="st18" width="11.7" height="11.7"/>
<path class="st2" d="M247.8,200.2c-0.3,0-0.5-0.2-0.5-0.4c0,0,0,0,0-0.1l0,0c0-0.2,0.1-0.4,0.3-0.5l9.9-3.5c0.3-0.1,0.6,0.1,0.7,0.4
	c0.1,0.3,0,0.5-0.3,0.6L247.8,200.2L247.8,200.2z"/>
<path class="st2" d="M249.4,202.6c-0.3,0-0.5-0.2-0.5-0.4c0,0,0,0,0-0.1l0,0c0-0.2,0.1-0.4,0.3-0.5l5.4-1.8c0.2-0.1,0.5,0,0.6,0.2
	c0,0,0,0.1,0,0.2c0,0.2-0.1,0.4-0.2,0.5l0,0l-5.4,1.8L249.4,202.6z"/>
<polygon class="st3" points="218.8,209.1 212,209.1 228.6,155.5 235.4,155.5 "/>
<polygon class="st3" points="229.7,209.1 223,209.1 239.6,155.5 246.4,155.5 "/>
<path class="st2" d="M263.7,210.2h-66.5c-0.6,0-1.1-0.5-1.1-1.1v-53.6c0-0.6,0.5-1.1,1.1-1.1h66.5c0.6,0,1.1,0.5,1.1,1.1v53.6
	C264.8,209.7,264.3,210.2,263.7,210.2z M198.3,208h64.3v-51.4h-64.3V208z"/>
<circle class="st12" cx="259.2" cy="240.4" r="5.9"/>
<circle class="st12" cx="258.5" cy="227.5" r="1.8"/>
<circle class="st12" cx="244.2" cy="233.5" r="2.2"/>
<circle class="st12" cx="235.1" cy="245.5" r="1.1"/>
<circle class="st12" cx="239.5" cy="248.8" r="2.5"/>
<circle class="st12" cx="246.7" cy="244.1" r="2.5"/>
<rect x="227.2" y="247.6" class="st12" width="48.9" height="6.2"/>
<path class="st2" d="M276.3,257.5H97.4c-0.6,0-1.1-0.5-1.2-1.1c0,0,0,0,0,0v-14c0-0.6,0.5-1.2,1.2-1.2s1.2,0.5,1.2,1.2l0,0v12.9
	h176.6V136.8c0-0.6,0.5-1.2,1.1-1.2c0.6,0,1.2,0.5,1.2,1.1c0,0,0,0,0,0v119.5C277.5,256.9,276.9,257.4,276.3,257.5
	C276.3,257.5,276.3,257.5,276.3,257.5z"/>
<rect x="39.3" y="253.8" class="st9" width="259.1" height="12"/>
<rect x="39.3" y="253.8" class="st3" width="259.1" height="5.8"/>
<path class="st2" d="M298.4,267.8H39.3c-0.6,0-1.1-0.5-1.2-1.1c0,0,0,0,0,0v-12c0-0.6,0.5-1.1,1.1-1.1c0,0,0,0,0,0h259.1
	c0.6,0,1.1,0.5,1.1,1.1c0,0,0,0,0,0v12C299.6,267.2,299,267.7,298.4,267.8C298.4,267.8,298.4,267.8,298.4,267.8z M40.4,265.5h256.8
	v-9.7H40.5L40.4,265.5z"/>
<path class="st20" d="M291.2,122.7l-40.2-47.2H121.9l-37.3,43.9c-1.1,1-2.1,2.1-3,3.2c-0.4,0.6-0.6,1.2-0.8,1.9h-0.1v0.6
	c-0.1,0.5-0.1,1.1,0,1.6v2.5c0.2,6.5,5.7,11.5,12.2,11.3c6.2-0.2,11.2-5.3,11.3-11.5l0,0v-1.7l0,0v2c0.2,6.5,5.7,11.5,12.2,11.3
	c6.2-0.2,11.2-5.3,11.3-11.5l0,0v-1.4l0,0v1.7c0.2,6.5,5.7,11.5,12.2,11.3c6.2-0.2,11.2-5.3,11.3-11.5l0,0v-1.1l0,0v1.4
	c0.2,6.5,5.7,11.5,12.2,11.3c6.2-0.2,11.2-5.3,11.3-11.5l0,0V128l0,0v1.1c0.2,6.5,5.7,11.5,12.2,11.3c6.2-0.2,11.2-5.3,11.3-11.5
	v-0.6l0,0v0.8c0.2,6.5,5.7,11.5,12.2,11.3c6.2-0.2,11.2-5.3,11.3-11.5v-0.3l0,0v0.5c0.2,6.5,5.7,11.5,12.2,11.3
	c6.2-0.2,11.2-5.3,11.3-11.5l0,0v0.2c0.2,6.5,5.7,11.5,12.2,11.3c6.2-0.2,11.2-5.3,11.3-11.5v-4.4l0,0v4.6
	c-0.1,6.5,5.1,11.8,11.5,11.9c6.5,0.1,11.8-5.1,11.9-11.5c0-0.2,0-0.4,0-0.6v-4.4L291.2,122.7z M135.5,76H135l0.1-0.2L135.5,76z"/>
<path class="st14" d="M220,75.7l21.3,48.8c0,0,3.5,9.9-5.7,15.9l4.1-1.5c0,0,8.7-6.3,2.9-20.2s-19.4-42.4-19.4-42.4L220,75.7z"/>
<path class="st3" d="M192.1,76l5.5,45.6l0.3,6.1c0,0-1.7,9.9,6.6,11.9l3.4,1.3c0,0,8.4,0.6,11.6-5.8s1.6-10.6,1.6-10.6l-13.2-48.2
	L192.1,76z"/>
<path class="st6" d="M219.1,135.1c-2.4,3.9-7.2,6.5-11.7,5.6c1.9,0.4,4.7-1.1,6.2-2.2c1.9-1.5,3.3-3.5,4-5.8
	c2.1-5.9-0.5-12.1-2-17.9L211,97.9l-5.8-21.6l-13.5-0.3l0,0l15.7,0.3l6.7,24.5l4.2,15.5c1.7,6.1,4.2,12.4,0.8,18.4L219.1,135.1z"/>
<path class="st14" d="M248.3,76l39.8,49.5c0,0,5.3,12.5-8.3,15.2c0,0,12.1,1.5,11.8-14.9l-1-3.2L250.6,76H248.3z"/>
<path class="st3" d="M135.1,75.5l-31.2,47.2v4.8c0,0-1.9,12.5,10.3,13.5s13.4-10.6,13.4-10.6l-0.2-5.5l0.6-3.5l20.9-45.6L135.1,75.5
	z"/>
<path class="st3" d="M163.5,75.7L151,122.6l-0.6,4.5c0,0,0.2,11.6,8.8,13.4s12.2-2.9,13.1-4.4s1.9-9.3,1.9-9.3l5.1-51.4L163.5,75.7z
	"/>
<path class="st3" d="M222.3,76.3l21.8,45.9l0.6,8.6c0,0,0.7,10.4,10.1,10s13-9.4,13-9.4v-6L236.8,76L222.3,76.3z"/>
<path class="st6" d="M234.2,76.5l28.5,44.7c2.5,3.8,3.3,8.4,2.3,12.8c-0.6,2.5-1.7,4.8-4,5.8c0,0,8.7-2.4,6.9-14.1
	c-0.6-4.1-6-10.6-10.7-18.2c-9.3-14.8-20.7-31.9-20.7-31.9L234.2,76.5z"/>
<path class="st14" d="M190.4,75.4l4.6,48.8c0,0,1.8,15.6-10.2,16.3c0,0,13.7,2.4,13.2-15.5s-6-49.3-6-49.3L190.4,75.4z"/>
<path class="st6" d="M176.4,76l-5.8,46.3c2.1,6.8-0.4,14.1-6.1,18.3l6.1-2.6l3.2-7.1c0,0,5.5-54.6,4.8-54.9
	C177.9,75.8,177.1,75.8,176.4,76z"/>
<path class="st14" d="M160.9,75.7l-13.2,48.5c0,0,3.5,10.9-6.1,16.7c0,0,11.3-3.6,8.9-15.7c0,0,14.3-48.9,13.6-49.3
	C163.1,75.8,162,75.7,160.9,75.7z"/>
<path class="st6" d="M146.5,76L124,123.9c0,0,5.7,10.5-6.8,17.2c0,0,11.6-2.4,10-15.9l22.2-49.5l-3-0.2L146.5,76z"/>
<path class="st14" d="M131.9,75.6l-31.3,47.6c0,0,1.6,15.1-9.3,18c0,0,14.4-1.3,12.5-16.1L134.6,76L131.9,75.6z"/>
<path class="st2" d="M185.9,141.9c-6.9,0-12.5-5.5-12.5-12.4v-4.6c0-0.4,0.5-0.8,0.9-0.7c0.4,0,0.7,0.3,0.7,0.7v4.6
	c0.1,6,5,10.9,11,10.8c6-0.1,10.9-5,10.8-11l0,0v-4.4c0-0.4,0.5-0.8,0.9-0.7c0.4,0,0.7,0.3,0.7,0.7v4.4c0.1,6.9-5.5,12.6-12.4,12.7
	H185.9z"/>
<path class="st2" d="M209.4,141.9c-6.9,0-12.5-5.5-12.5-12.4v-4.6c0-0.4,0.5-0.8,0.9-0.7c0.4,0,0.7,0.3,0.7,0.7v4.6
	c0.1,6,5,10.9,11,10.8c6-0.1,10.9-5,10.8-11l0,0v-4.4c0-0.4,0.5-0.8,0.9-0.7c0.4,0,0.7,0.3,0.7,0.7v4.4c0.1,6.9-5.5,12.6-12.4,12.7
	H209.4z"/>
<path class="st2" d="M232.8,141.9c-6.9,0-12.5-5.5-12.5-12.4v-4.6c0-0.4,0.5-0.8,0.9-0.7c0.4,0,0.7,0.3,0.7,0.7v4.6
	c0.1,6,5,10.9,11,10.8c6-0.1,10.9-5,10.8-11l0,0v-4.4c0-0.4,0.5-0.8,0.9-0.7c0.4,0,0.7,0.3,0.7,0.7v4.4c0.1,6.9-5.5,12.6-12.4,12.7
	H232.8z"/>
<path class="st2" d="M256.3,141.9c-6.9,0-12.5-5.5-12.5-12.4v-4.6c0-0.4,0.5-0.8,0.9-0.7c0.4,0,0.7,0.3,0.7,0.7v4.6
	c0.1,6,5,10.9,11.1,10.8c6-0.1,10.9-5,10.8-11.1l0,0v-4.4c0-0.4,0.5-0.8,0.9-0.7c0.4,0,0.7,0.3,0.7,0.7v4.4
	c0.1,6.9-5.5,12.6-12.4,12.7H256.3z"/>
<path class="st2" d="M279.7,141.9c-6.9,0-12.5-5.5-12.5-12.4v-4.6c0-0.4,0.5-0.8,0.9-0.7c0.4,0,0.7,0.3,0.7,0.7v4.6
	c0.1,6,5,10.9,11,10.8c6-0.1,10.9-5,10.8-11l0,0v-4.4c0-0.4,0.5-0.8,0.9-0.7c0.4,0,0.7,0.3,0.7,0.7v4.4c0.1,6.9-5.5,12.6-12.4,12.7
	H279.7z"/>
<path class="st2" d="M162.5,141.9c-6.8,0-12.4-5.5-12.5-12.4v-4.6c0-0.4,0.5-0.8,0.9-0.7c0.4,0,0.7,0.3,0.7,0.7v4.6
	c0.1,6,5,10.9,11,10.8c6-0.1,10.9-5,10.8-11l0,0v-4.4c0-0.4,0.5-0.8,0.9-0.7c0.4,0,0.7,0.3,0.7,0.7v4.4c0.1,6.9-5.5,12.6-12.4,12.7
	H162.5z"/>
<path class="st2" d="M139,141.9c-6.9,0-12.5-5.5-12.5-12.4v-4.6c0-0.4,0.5-0.8,0.9-0.7c0.4,0,0.7,0.3,0.7,0.7v4.6
	c0.1,6.1,5,10.9,11.1,10.8c6.1-0.1,10.9-5,10.8-11.1l0,0l0,0v-4.4c0-0.4,0.5-0.8,0.9-0.7c0.4,0,0.7,0.3,0.7,0.7v4.4
	c0.1,6.9-5.5,12.6-12.4,12.7L139,141.9z"/>
<path class="st2" d="M115.6,141.9c-6.9,0-12.5-5.5-12.5-12.4v-4.6c0-0.4,0.5-0.8,0.9-0.7c0.4,0,0.7,0.3,0.7,0.7v4.6
	c0.1,6,5,10.9,11,10.8c6-0.1,10.9-5,10.8-11l0,0v-4.4c0-0.4,0.5-0.8,0.9-0.7c0.4,0,0.7,0.3,0.7,0.7v4.4c0.1,6.9-5.5,12.6-12.4,12.7
	H115.6z"/>
<path class="st2" d="M92.1,141.9c-6.9,0-12.5-5.5-12.5-12.4v-4.6c0-0.4,0.5-0.8,0.9-0.7c0.4,0,0.7,0.3,0.7,0.7v4.6
	c0.1,6,5,10.9,11,10.8c6-0.1,10.9-5,10.8-11.1l0,0v-4.4c0-0.4,0.5-0.8,0.9-0.7c0.4,0,0.7,0.3,0.7,0.7v4.4
	c0.1,6.9-5.5,12.6-12.4,12.7H92.1z"/>
<path class="st2" d="M174.3,123.2L174.3,123.2c-0.5,0-0.8-0.4-0.8-0.9c0,0,0,0,0,0l4.8-46.6c0.1-0.4,0.4-0.8,0.9-0.7
	c0.4,0,0.8,0.4,0.7,0.9l-4.8,46.6C175,122.9,174.7,123.2,174.3,123.2z"/>
<path class="st2" d="M194.5,95.1c-0.4,0-0.7-0.3-0.8-0.7l-1.9-18.5c0-0.4,0.3-0.8,0.7-0.9s0.8,0.3,0.9,0.7l0,0l1.9,18.5
	C195.4,94.7,195,95.1,194.5,95.1L194.5,95.1z"/>
<path class="st2" d="M195.5,105.2c-0.4,0-0.8-0.3-0.8-0.7l-0.6-5.3c0-0.4,0.3-0.8,0.8-0.8c0.4,0,0.8,0.3,0.8,0.7l0.5,5.3
	c0.1,0.4-0.3,0.8-0.7,0.9C195.6,105.2,195.6,105.2,195.5,105.2L195.5,105.2L195.5,105.2z"/>
<path class="st2" d="M197.4,123.2c-0.4,0-0.8-0.3-0.8-0.7l-1.1-10.7c0-0.4,0.3-0.8,0.7-0.9s0.8,0.3,0.9,0.7l0,0l1.1,10.7
	c0,0.4-0.3,0.8-0.7,0.9L197.4,123.2z"/>
<path class="st2" d="M220.5,123.9c-0.4,0-0.7-0.2-0.8-0.6l-12.5-47.2c-0.1-0.4,0.1-0.9,0.6-1c0.4-0.1,0.9,0.1,1,0.6l0,0l12.5,47.2
	c0.1,0.4-0.1,0.9-0.5,1c0,0,0,0,0,0C220.7,123.9,220.6,123.9,220.5,123.9z"/>
<path class="st2" d="M244.3,123.9c-0.3,0-0.6-0.2-0.7-0.5l-21.5-47.2c-0.2-0.4,0-0.9,0.4-1.1c0.4-0.2,0.9,0,1.1,0.4c0,0,0,0,0,0
	l21.5,47.2c0.2,0.4,0,0.9-0.4,1.1C244.5,123.8,244.4,123.9,244.3,123.9L244.3,123.9z"/>
<path class="st2" d="M127.7,123.9c-0.1,0-0.2,0-0.3-0.1c-0.4-0.2-0.6-0.7-0.4-1.1c0,0,0,0,0,0l0,0l21.5-47.2
	c0.2-0.4,0.7-0.6,1.1-0.4s0.6,0.7,0.4,1.1l0,0l-21.5,47.2C128.3,123.7,128,123.9,127.7,123.9z"/>
<path class="st2" d="M124.8,92.2c-0.4,0-0.8-0.3-0.8-0.8c0,0,0,0,0,0c0-0.2,0-0.3,0.1-0.4l9.9-15.3c0.2-0.4,0.7-0.5,1.1-0.3
	c0,0,0,0,0,0c0.4,0.2,0.5,0.7,0.3,1.1v0.1l-9.9,15.3C125.4,92.1,125.1,92.2,124.8,92.2z"/>
<path class="st2" d="M118.1,102.6c-0.4,0-0.8-0.3-0.8-0.8c0,0,0,0,0,0c0-0.2,0-0.3,0.1-0.4l4.2-6.4c0.2-0.4,0.7-0.5,1.1-0.2
	c0,0,0,0,0,0c0.4,0.2,0.5,0.7,0.2,1.1l-4.2,6.4C118.6,102.4,118.4,102.6,118.1,102.6z"/>
<path class="st2" d="M104.3,123.9c-0.4,0-0.8-0.4-0.8-0.8c0-0.2,0-0.3,0.1-0.4l11.3-17.4c0.3-0.3,0.8-0.4,1.1-0.1
	c0.3,0.2,0.4,0.7,0.2,1l-11.3,17.4C104.8,123.7,104.5,123.9,104.3,123.9z"/>
<path class="st2" d="M267.4,123.9c-0.3,0-0.5-0.1-0.7-0.4l-30.5-46.9c-0.3-0.3-0.2-0.9,0.1-1.1s0.9-0.2,1.1,0.1c0,0,0,0,0,0.1v0.1
	l30.5,46.9c0.2,0.4,0.1,0.9-0.2,1.1C267.7,123.8,267.6,123.9,267.4,123.9z"/>
<path class="st2" d="M290.9,123.9c-0.2,0-0.5-0.1-0.6-0.3l-40.2-47.2c-0.3-0.3-0.3-0.8,0-1.1c0.3-0.3,0.8-0.3,1.1,0l0.1,0.1
	l40.1,47.2c0.3,0.3,0.2,0.8-0.1,1.1c0,0,0,0,0,0C291.3,123.8,291.1,123.9,290.9,123.9z"/>
<path class="st2" d="M81.4,123.9c-0.4,0-0.8-0.4-0.8-0.8c0-0.2,0.1-0.4,0.2-0.5L121,75.3c0.3-0.3,0.8-0.3,1.1,0
	c0.3,0.3,0.3,0.7,0.1,1.1l-40.2,47.2C81.9,123.8,81.7,123.9,81.4,123.9z"/>
<path class="st2" d="M156.2,104.8c-0.1,0-0.1,0-0.2,0c-0.4-0.1-0.7-0.6-0.6-1c0,0,0,0,0,0l0,0l7.5-28.2c0.1-0.4,0.6-0.7,1-0.6
	c0.4,0.1,0.7,0.6,0.6,1l-7.4,28.2C156.9,104.6,156.6,104.8,156.2,104.8z"/>
<path class="st2" d="M151.1,123.9c-0.1,0-0.1,0-0.2,0c-0.4-0.1-0.7-0.5-0.6-1c0,0,0,0,0,0l3.4-13c0.1-0.4,0.5-0.7,1-0.6
	c0.4,0.1,0.7,0.5,0.6,1c0,0,0,0,0,0.1l-3.4,13C151.8,123.6,151.5,123.9,151.1,123.9z"/>
<path class="st2" d="M250.7,76.6H121.6c-0.4,0-0.8-0.4-0.8-0.8c0-0.4,0.4-0.8,0.8-0.8h129.1c0.4,0,0.8,0.4,0.8,0.8
	C251.5,76.3,251.2,76.6,250.7,76.6C250.7,76.6,250.7,76.6,250.7,76.6z"/>
<path class="st2" d="M157.8,98.5c-0.3,0-0.5-0.2-0.5-0.5c0-0.2,0.1-0.4,0.3-0.5l9.1-3.2c0.3-0.1,0.5,0,0.6,0.3
	c0.1,0.2,0,0.5-0.3,0.6l-9.1,3.2C157.9,98.5,157.9,98.5,157.8,98.5z"/>
<path class="st2" d="M159.4,100.7c-0.3,0-0.5-0.1-0.6-0.4s0.1-0.5,0.4-0.6l0,0l5-1.7c0.2-0.1,0.5,0,0.6,0.3c0.1,0.2,0,0.5-0.3,0.6
	h-0.1l-5,1.7C159.5,100.6,159.4,100.7,159.4,100.7z"/>
<path class="st2" d="M158.9,130.2c-0.1,0-0.2,0-0.2-0.1l-7.3-3.8c-0.2-0.1-0.3-0.4-0.2-0.6c0,0,0,0,0,0c0.1-0.2,0.4-0.3,0.6-0.2
	c0,0,0,0,0,0l0,0l7.3,3.8c0.2,0.1,0.3,0.4,0.2,0.6C159.3,130.1,159.1,130.2,158.9,130.2z"/>
<path class="st2" d="M154.7,130.3c-0.1,0-0.2,0-0.2-0.1l-3.2-1.7c-0.2-0.1-0.3-0.4-0.2-0.7c0.1-0.2,0.4-0.3,0.6-0.2c0,0,0,0,0,0
	l3.2,1.7c0.2,0.1,0.3,0.4,0.2,0.6C155,130.2,154.8,130.3,154.7,130.3L154.7,130.3z"/>
<path class="st2" d="M242,117.7c-0.3,0-0.5-0.2-0.5-0.5c0-0.2,0.1-0.4,0.3-0.5l9.1-3.2c0.2-0.1,0.5,0,0.6,0.3c0.1,0.3,0,0.5-0.3,0.6
	l-9.1,3.2C242.1,117.7,242.1,117.7,242,117.7z"/>
<path class="st2" d="M243.9,120.3c-0.3,0-0.5-0.2-0.5-0.5c0-0.2,0.1-0.4,0.3-0.4l5-1.7c0.2-0.1,0.5,0,0.6,0.3c0.1,0.2,0,0.5-0.3,0.6
	l0,0l0,0l-5,1.7L243.9,120.3z"/>
<circle class="st14" cx="193.7" cy="121" r="2.6"/>
<circle class="st6" cx="216.8" cy="125.8" r="2.6"/>
<circle class="st6" cx="206.1" cy="95.4" r="2.7"/>
<circle class="st6" cx="205.4" cy="90.6" r="0.8"/>
<circle class="st6" cx="121.1" cy="126.1" r="4.5"/>
<circle class="st14" cx="286.5" cy="126.1" r="2.6"/>
<circle class="st14" cx="282.9" cy="122.7" r="0.8"/>
<circle class="st6" cx="213" cy="121" r="1"/>
<circle class="st14" cx="190.5" cy="117.4" r="1"/>
<circle class="st6" cx="117.3" cy="119.1" r="1.6"/>
<path class="st2" d="M291.2,124.7H81c-0.4,0-0.8-0.3-0.9-0.7s0.3-0.8,0.7-0.9c0.1,0,0.1,0,0.2,0h210.2c0.4,0,0.8,0.5,0.7,0.9
	C291.9,124.3,291.6,124.6,291.2,124.7z"/>
<path class="st6" d="M209.6,90.6L209.6,90.6c-1.7,0-3,1.3-3,3c0,0.3,0,0.5,0.1,0.8l3.3,13.3c0.3,1.3,1.5,2.3,2.9,2.3h1.8L209.6,90.6
	z"/>
</svg>
