<?xml version="1.0" encoding="utf-8"?>
<!-- Generator: Adobe Illustrator 24.2.1, SVG Export Plug-In . SVG Version: 6.00 Build 0)  -->
<svg version="1.1" id="Layer_1" xmlns="http://www.w3.org/2000/svg" xmlns:xlink="http://www.w3.org/1999/xlink" x="0px" y="0px"
	 viewBox="0 0 500 500" style="enable-background:new 0 0 500 500;" xml:space="preserve">
<style type="text/css">
	.st0{fill:#231F20;}
</style>
<path class="st0" d="M453.36,63.56v-0.07c0-0.15,0-0.29,0-0.36v-0.07c0-0.15,0-0.22,0-0.36v-0.07c0-0.15-0.07-0.29-0.15-0.36
	c0,0,0,0,0-0.07c-0.07-0.15-0.07-0.22-0.15-0.29l-0.07-0.07c-0.07-0.15-0.15-0.22-0.29-0.29l0,0l0,0l0,0
	c-0.07-0.07-0.22-0.15-0.29-0.22l-0.07-0.07c-0.15-0.07-0.22-0.15-0.36-0.22l0,0c-0.15-0.07-0.22-0.07-0.36-0.07h-0.07
	c-0.15,0-0.29-0.07-0.36,0l0,0c-0.15,0-0.29,0-0.44,0.07h-0.07c-0.07,0-0.07,0-0.15,0l-84.46,24.46c-0.29,0.07-0.58,0.22-0.8,0.44
	l-40.99,32.55H251.6h-72.74l-40.99-32.55c-0.22-0.22-0.51-0.36-0.8-0.44L52.62,61.01c-0.07,0-0.07,0-0.15,0H52.4
	c-0.15,0-0.29-0.07-0.44-0.07l0,0c-0.15,0-0.29,0-0.44,0.07h-0.07c-0.15,0-0.29,0.07-0.36,0.15l0,0c-0.15,0.07-0.22,0.15-0.36,0.22
	l-0.07,0.07c-0.15,0.07-0.22,0.15-0.29,0.22l0,0l0,0l0,0c-0.07,0.07-0.22,0.22-0.29,0.29l-0.07,0.07c-0.07,0.07-0.15,0.22-0.15,0.29
	c0,0,0,0,0,0.07c-0.07,0.15-0.07,0.22-0.15,0.36v0.07c0,0.15,0,0.22,0,0.36v0.07c0,0.15,0,0.29,0,0.36v0.07c0,0.07,0,0.07,0,0.15
	L92.3,211.21l-36.4,81.26c0,0,0,0,0,0.07c-0.07,0.15-0.15,0.29-0.15,0.44c0,0,0,0,0,0.07c0,0.15,0,0.22-0.07,0.36
	c0,0.07,0,0.07,0,0.15v0.07c0,0.15,0,0.29,0.07,0.44v0.07c0.07,0.15,0.07,0.29,0.22,0.44l0,0l63.71,115.11l0.07,0.07
	c0,0.07,0.07,0.15,0.15,0.15l0.07,0.07c0.07,0.07,0.07,0.07,0.15,0.15l0.07,0.07c0.07,0.07,0.07,0.07,0.15,0.15l0.07,0.07
	c0.07,0.07,0.15,0.07,0.15,0.07s0,0,0.07,0l129.82,67.35c0,0,0,0,0.07,0c0.15,0.07,0.29,0.15,0.44,0.15h0.07
	c0.15,0,0.29,0.07,0.51,0.07l0,0l0,0l0,0l0,0c0.15,0,0.36,0,0.51-0.07h0.07c0.15-0.07,0.29-0.07,0.44-0.15c0,0,0,0,0.07,0
	l129.82-67.35c0,0,0,0,0.07,0c0.07,0,0.15-0.07,0.15-0.07l0.07-0.07c0.07-0.07,0.15-0.07,0.15-0.15l0.07-0.07
	c0.07-0.07,0.07-0.07,0.15-0.15l0.07-0.07c0.07-0.07,0.07-0.15,0.15-0.15l0.07-0.07l63.71-115.11l0,0c0.07-0.15,0.15-0.29,0.22-0.44
	v-0.07c0.07-0.15,0.07-0.29,0.07-0.44v-0.07c0-0.07,0-0.07,0-0.15c0-0.15,0-0.22-0.07-0.36c0,0,0,0,0-0.07
	c0-0.15-0.07-0.29-0.15-0.44c0,0,0,0,0-0.07l-36.4-81.26L453.36,63.7C453.36,63.63,453.36,63.56,453.36,63.56z M429.84,128.07
	l-46.6,6.99l62.98-63.78L429.84,128.07z M380.33,405.11l-66.91-35.39l125.45-70.41L380.33,405.11z M251.46,473.04l-56.94-29.56
	L225.46,407l25.12,9.76h0.07c0.07,0,0.15,0.07,0.29,0.07c0.07,0,0.07,0,0.15,0c0.15,0,0.29,0,0.36,0l0,0l0,0l0,0l0,0
	c0.15,0,0.29,0,0.36,0c0.07,0,0.07,0,0.15,0c0.07,0,0.22-0.07,0.29-0.07h0.07l25.12-9.76l30.94,36.48L251.46,473.04z M64.12,299.39
	l125.45,70.41l-66.91,35.39L64.12,299.39z M56.77,71.35l62.98,63.78l-46.6-6.99L56.77,71.35z M251.46,123.99l45.94,47.84h-45.94
	h-45.94L251.46,123.99z M251.46,176.56h47.03l-31.82,47.76c0,0,0,0.07-0.07,0.07c-0.07,0.07-0.15,0.22-0.15,0.29
	c0,0.07-0.07,0.07-0.07,0.15c-0.07,0.15-0.07,0.22-0.07,0.36v0.07l0,0L251.46,334.7L236.6,225.27l0,0v-0.07
	c0-0.15-0.07-0.22-0.07-0.36c0-0.07,0-0.07-0.07-0.15c-0.07-0.07-0.07-0.22-0.15-0.29c0,0,0-0.07-0.07-0.07l-31.82-47.76H251.46z
	 M251.46,412.02l-21.55-8.37l21.55-14.05l21.55,14.05L251.46,412.02z M248.76,349.99h-15.29l-22.06-31.96
	c0-0.07-0.07-0.07-0.07-0.15l22.21-80.45L248.76,349.99z M251.46,354.72h16.96v20.53l-16.89,8.88l-16.89-8.88v-20.53H251.46z
	 M304.83,365.5l-30.51-14.13l19-27.52L304.83,365.5z M282.18,265.53l29.2,21.7c0.44,0.29,0.95,0.44,1.38,0.44
	c0.58,0,1.24-0.22,1.67-0.66l32.91-32.76l22.86,6.33l-74.41,54.24L282.18,265.53z M284.44,261.31l55.7-6.63l-27.59,27.45
	L284.44,261.31z M347.27,249.29h-0.07c-0.07,0-0.15,0-0.22-0.07c-0.07,0-0.15,0-0.22,0c-0.07,0-0.15,0-0.22,0c-0.07,0-0.07,0-0.15,0
	l-62.32,7.43l25.63-33.35L359,252.64L347.27,249.29z M279.27,255.05l-7.57-27.45l32.04-4.37L279.27,255.05z M269.44,237.43
	l22.21,80.45c0,0.07-0.07,0.07-0.07,0.15l-22.06,31.96h-15.36L269.44,237.43z M209.67,323.85l19,27.52l-30.51,14.13L209.67,323.85z
	 M223.72,255.05l-24.46-31.82l32.04,4.37L223.72,255.05z M218.91,256.65l-59.78-6.92c-0.07,0-0.15,0-0.29,0
	c-0.22,0-0.36,0-0.58,0.07l-16.24,3.93l51.18-30.43L218.91,256.65z M218.04,261.31l-28.18,20.9l-26.79-27.23L218.04,261.31z
	 M156.59,255.05l31.38,31.89c0.44,0.44,1.09,0.73,1.67,0.73c0.51,0,1.02-0.15,1.38-0.44l29.92-22.21l-13.76,49.8L133,260.72
	L156.59,255.05z M205.88,319.7l-12.23,44.2l-58.03-95.38L205.88,319.7z M196.56,375.76l25.12,28.47l-28.18,33.13L196.56,375.76z
	 M198.38,370.59l31.45-14.56v20.61c0,0.87,0.51,1.67,1.24,2.11l15.73,8.23l-21.62,14.13L198.38,370.59z M256.19,386.98l15.73-8.23
	c0.8-0.44,1.24-1.24,1.24-2.11v-20.61l31.45,14.56l-26.87,30.51L256.19,386.98z M306.43,375.76l3.06,61.6l-28.18-33.13
	L306.43,375.76z M297.11,319.7l70.26-51.19l-58.03,95.38L297.11,319.7z M373.2,253.22l-49.36-58.1l50.24-50.82L373.2,253.22z
	 M364.53,250.31l-53.22-31.67l-4.88-36.77L364.53,250.31z M306.43,218.13l-32.84,4.51l27.89-41.79L306.43,218.13z M201.51,180.78
	l27.89,41.79l-32.84-4.51L201.51,180.78z M191.68,218.64l-53.22,31.67l58.1-68.44L191.68,218.64z M129.79,253.22l-0.87-108.92
	l50.24,50.82L129.79,253.22z M124.19,149.62l0.8,102.15l-27.59-40.85L124.19,149.62z M126.52,262.69l61.23,100.62L63.1,293.34
	L126.52,262.69z M191.9,373.8l-3.28,66.55l-61.82-32.11L191.9,373.8z M311.02,373.8l65.16,34.44l-61.82,32.11L311.02,373.8z
	 M315.17,363.31l61.23-100.62l63.42,30.65L315.17,363.31z M405.52,210.92l-27.59,40.85l0.8-102.15L405.52,210.92z M367.66,89.7
	l75.28-21.84l-68.22,69.02l0,0l-54.02,54.68l-15.07-17.77l21.19-51.69L367.66,89.7z M321.43,122.97l-19.29,46.96l-45.14-46.96
	H321.43z M200.78,169.93l-19.29-46.96h64.36L200.78,169.93z M176.03,122.02l21.19,51.69l-15.07,17.77l-54.02-54.68l0,0L59.9,67.78
	l75.28,21.84L176.03,122.02z M74.6,133.09l48.42,7.28l-27.89,63.85L74.6,133.09z M95.14,216.02l28.76,42.59l-61.16,29.56
	L95.14,216.02z M440.11,288.25l-61.16-29.56l28.76-42.59L440.11,288.25z M407.78,204.22l-27.89-63.85l48.42-7.28L407.78,204.22z"/>
</svg>
